<?xml version="1.0" encoding="UTF-8"?>
<svg width="744.09448819" height="1052.3622047" xmlns="http://www.w3.org/2000/svg" xmlns:svg="http://www.w3.org/2000/svg">
 <title>thought</title>

 <g>
  <title>Layer 1</title>
  <g id="layer1">
   <path fill-opacity="0" d="m384.653931,191.836197c-36.350891,0 -67.886841,18.254257 -85.527679,45.212646c-16.366791,-10.771255 -36.206299,-17.283875 -57.755814,-17.283798c-55.459824,0 -100.519623,41.971466 -100.519623,93.630157c0,3.796143 0.756454,7.424591 1.228867,11.102844c-47.896629,7.118561 -84.667519,45.419312 -84.667519,92.02774c0,46.181458 36.064415,84.403259 83.315788,92.02774c-0.957443,5.185242 -1.720413,10.471741 -1.720413,15.910217c0,51.658752 45.059799,93.515747 100.519623,93.515747c27.164429,0 51.708954,-10.107117 69.798553,-26.440796c18.434967,20.425476 45.688812,33.766357 76.557098,33.766357c44.042389,0 81.067047,-26.654236 94.621185,-63.412109c10.848755,3.736877 22.415863,6.18103 34.653412,6.18103c55.4599,0 100.396851,-41.971558 100.396851,-93.630249c0,-25.976959 -11.369568,-49.426941 -29.738098,-66.388153c9.273376,-14.171448 14.991943,-30.618347 14.991943,-48.417603c0,-51.658722 -45.059753,-93.515808 -100.519714,-93.515717c-5.838104,0 -11.514648,0.596344 -17.080933,1.488007c-8.955597,-43.128876 -49.647705,-75.774063 -98.553528,-75.774063z" id="path3422" stroke-dashoffset="0" stroke-miterlimit="4" stroke-linejoin="round" stroke-width="10.856777" stroke="#000000" fill="#000000"/>
  </g>
 </g>
</svg>